<svg id="Calque_1" data-name="Calque 1" xmlns="http://www.w3.org/2000/svg" xmlns:xlink="http://www.w3.org/1999/xlink" viewBox="0 0 1190.55 413.55"><defs><style>.cls-1{fill:url(#Nouvelle_nuance_de_dégradé_1_2);}.cls-2{fill:url(#Nouvelle_nuance_de_dégradé_1);}.cls-3{fill:url(#Nouvelle_nuance_de_dégradé_1-2);}.cls-4{fill:#fff;}.cls-5{fill:#606060;}.cls-6{fill:url(#Nouvelle_nuance_de_dégradé_1-3);}.cls-7{fill:url(#Nouvelle_nuance_de_dégradé_1-4);}.cls-8{fill:url(#Nouvelle_nuance_de_dégradé_1-5);}.cls-9{fill:url(#Nouvelle_nuance_de_dégradé_1-6);}.cls-10{fill:url(#Nouvelle_nuance_de_dégradé_1-7);}.cls-11{fill:url(#Nouvelle_nuance_de_dégradé_1-8);}</style><linearGradient id="Nouvelle_nuance_de_dégradé_1_2" x1="142.12" y1="196.3" x2="267.73" y2="196.3" gradientUnits="userSpaceOnUse"><stop offset="0" stop-color="#00aef1"/><stop offset="1" stop-color="#1c76bd"/></linearGradient><linearGradient id="Nouvelle_nuance_de_dégradé_1" x1="219.53" y1="210.61" x2="367.19" y2="210.61" gradientUnits="userSpaceOnUse"><stop offset="0" stop-color="#e94e1b"/><stop offset="1" stop-color="#e97443"/></linearGradient><linearGradient id="Nouvelle_nuance_de_dégradé_1-2" x1="337.28" y1="278.33" x2="362.62" y2="278.33" xlink:href="#Nouvelle_nuance_de_dégradé_1"/><linearGradient id="Nouvelle_nuance_de_dégradé_1-3" x1="431.44" y1="219.61" x2="513.14" y2="219.61" xlink:href="#Nouvelle_nuance_de_dégradé_1"/><linearGradient id="Nouvelle_nuance_de_dégradé_1-4" x1="524.43" y1="219.17" x2="614.06" y2="219.17" xlink:href="#Nouvelle_nuance_de_dégradé_1"/><linearGradient id="Nouvelle_nuance_de_dégradé_1-5" x1="641.42" y1="219.17" x2="735.66" y2="219.17" xlink:href="#Nouvelle_nuance_de_dégradé_1"/><linearGradient id="Nouvelle_nuance_de_dégradé_1-6" x1="767.55" y1="219.17" x2="850.5" y2="219.17" xlink:href="#Nouvelle_nuance_de_dégradé_1"/><linearGradient id="Nouvelle_nuance_de_dégradé_1-7" x1="872.49" y1="219.61" x2="946.35" y2="219.61" xlink:href="#Nouvelle_nuance_de_dégradé_1"/><linearGradient id="Nouvelle_nuance_de_dégradé_1-8" x1="971.08" y1="219.17" x2="1060.71" y2="219.17" xlink:href="#Nouvelle_nuance_de_dégradé_1"/></defs><path class="cls-1" d="M254.09,288.33c-1.93,3.84-4,7.65-6.15,11.38l-.1-.54c-.1-.51-.2-1-.34-1.53a12.65,12.65,0,0,1-.78-3c-.1-1.4-.34-2.79-.58-4.18a2.28,2.28,0,0,0-.58-1.23,17.62,17.62,0,0,1-2.51-4.11,34.4,34.4,0,0,0-4.55-7.71,6.7,6.7,0,0,1-1.67-3.78,8,8,0,0,1,.24-3.56c.13-.38.17-.79.27-1.16.1-.54.2-1.05.31-1.6A7.58,7.58,0,0,0,238,266a22.71,22.71,0,0,1,1.5-6.18c.2-.48.61-.85.81-1.33a2.25,2.25,0,0,1,1-1.05,3.27,3.27,0,0,0,1.8-2.89,6.92,6.92,0,0,1,.21-2.24,2.21,2.21,0,0,0-.27-2,14.21,14.21,0,0,1-1.94-4.59c-.1-.48-.27-.95.31-1.29.1,0,.17-.24.17-.38a9,9,0,0,0-.28-1.39c-.13-.54-.44-1-.54-1.53a9.64,9.64,0,0,0-1.9-4.55,2.43,2.43,0,0,1-.55-1.57,1.67,1.67,0,0,0-.23-.68,5.87,5.87,0,0,1-.48-1.15,7.51,7.51,0,0,0-1.8-3.81c-1.84-1.87-3.74-3.7-5.61-5.57a6.08,6.08,0,0,1-.44-.44,21.77,21.77,0,0,1-3.16-5.24c-.21-.44-.14-.71.27-.92a2.5,2.5,0,0,0,1.19-2.71c0-.21.17-.45.27-.65a1.69,1.69,0,0,1,.41-.34c-.14-.2-.2-.34-.31-.51.62-.48.79-.65.68-1.19-.06-.3-.34-.54-.47-.85s-.14-.51,0-.64a4.49,4.49,0,0,0,.75-2.18,21.21,21.21,0,0,1,.68-3.26,1.15,1.15,0,0,0-.2-1.39c-.44-.45-1.16-.82-.75-1.7a2.73,2.73,0,0,1-2.38-2c0-.1-.24-.27-.34-.23-.61.06-.88-.31-1.09-.82a2.59,2.59,0,0,0-.3-.41,3,3,0,0,0-.14.62c0,.57-.3.74-.85.81-1.12.17-2.21.34-3.23-.58-.23.92-.91,1-1.63,1.06a4.08,4.08,0,0,1-.92.13c-.54-.07-1.25,0-1.56-.34a3.48,3.48,0,0,1-1.32-2.89,1.25,1.25,0,0,0-.17-.57c-.48-.68-.92-1.33-1.47-2a2.3,2.3,0,0,0-1.12-.92,8,8,0,0,0-2.58-.24c-2.11.14-4.18.41-6.29.58a5,5,0,0,0-2.65.95,4.67,4.67,0,0,1-1.59.54c-.31.1-.72,0-1,.17-1,.48-2,1-3.06,1.53a3.32,3.32,0,0,1-1.06.41,7.71,7.71,0,0,0-2.75.92,2.47,2.47,0,0,1-1.53.17,24.76,24.76,0,0,0-3.43-.82,22,22,0,0,0-4.93-.34,16,16,0,0,0-7.17,1.91,6.37,6.37,0,0,1-1.8.47c-1.19.2-2.14-.44-3.23-.81a11.62,11.62,0,0,1-4.28-3,13.89,13.89,0,0,0-1.26-1.18c-.64-.55-1.36-1-2-1.47-.3-.23-.64-.44-.95-.71a10.36,10.36,0,0,0-2-1.9,17.92,17.92,0,0,1-3.84-2.52,4.13,4.13,0,0,1-.58-.75,5.64,5.64,0,0,1-.68-3.29,1.27,1.27,0,0,0-.13-.72c-.31-.54-.65-1.08-1-1.63a6.12,6.12,0,0,0-1.26-1.42,3.5,3.5,0,0,1-1.19-1.43c-.27-.72-.68-1.19-1.49-.92a5.31,5.31,0,0,0-.61-1.15,1.73,1.73,0,0,1-.65-1.5c0-.31,0-.58.07-1a2.6,2.6,0,0,1-2.35-.24,3.24,3.24,0,0,1-1.73-1.93,2,2,0,0,1,.27-2,2.4,2.4,0,0,0,.48-2.24c-.14-.58-.31-1.12-.44-1.7a1.59,1.59,0,0,0-.24-.51c-.41-.44-.85-.85-1.29-1.29.23-.13.51-.3.81-.44a4.51,4.51,0,0,0,2.69-3.26c.1-.41.2-.82.3-1.19.65-1.91,1.36-3.81,1.91-5.75a5.6,5.6,0,0,0-.14-4.18.84.84,0,0,1,.1-1.12,3.61,3.61,0,0,0,1-2.95,1.83,1.83,0,0,0-.34-.58,2.83,2.83,0,0,1-.61-.85c-.17-.41-.31-.78-1-.61a14.53,14.53,0,0,1,.51-2.11c.41-.88.58-2,1.77-2.28.17,0,.27-.3.4-.47,1.19-1.77,2.08-3.77,3.64-5.3a21,21,0,0,0,4.69-6.09c.37-.78.82-1.56,1.84-1.7.13,0,.23-.13.34-.2a6.73,6.73,0,0,0,2.85-2.89,4.13,4.13,0,0,1,3.57-2.17,3.87,3.87,0,0,0,2.41-1.16,1.43,1.43,0,0,1,.68-.51,12.81,12.81,0,0,0,4.83-3.47,3.38,3.38,0,0,0,.95-3.26,1.48,1.48,0,0,1,.1-.92,9.45,9.45,0,0,1,2.38-3.39c.27-.34.48-.72.71-1.06a6.49,6.49,0,0,1,2.38-2.55c1.5-.71,3.09-1.29,4.66-2a2.33,2.33,0,0,0,.78-.54,20.16,20.16,0,0,0,3.4-4.83,2.89,2.89,0,0,1,2-1.36c.34.51.68,1,1,1.43a2.69,2.69,0,0,0,.71.68,4.13,4.13,0,0,0,3.4.14,2.2,2.2,0,0,1,2,.13c1.26.61,3.7.61,4.69-.81a1.3,1.3,0,0,1,.48-.38c.84-.27,1.73-.54,2.61-.74a5,5,0,0,0,1.8-.72,7.73,7.73,0,0,1,4.93-1.66,3.84,3.84,0,0,0,2.62-.48.21.21,0,0,1,.13,0c1-.07,2-.14,3.06-.17,0,.47,0,.74,0,1,1.43,13.26,6.36,25.42,12.17,37.25,7.14,14.44,14.75,28.72,21.75,43.23,6.86,14.2,11.79,29.12,13.73,44.86C269.9,243.57,265,266.58,254.09,288.33Z"/><path class="cls-2" d="M367.06,179.27c0-1.18-.78-2.37-.24-3.6a.63.63,0,0,0,0-.34,1.56,1.56,0,0,0-2.35-.07,1.55,1.55,0,0,1-1.19.65c-1,.24-2,.54-3,.82-.21.06-.41.23-.58.2a4.88,4.88,0,0,0-2,.24,15.84,15.84,0,0,1-1.73.17,10.94,10.94,0,0,0-1.83.41,6.44,6.44,0,0,0-1.19.71,2.2,2.2,0,0,1-1.84.27,5.28,5.28,0,0,0-1.46-.34,1.16,1.16,0,0,0-.58.17c-.54.31-1.05.65-1.6,1a3.27,3.27,0,0,1-4.38-.89c-.31-.47-.65-.88-.92-1.36-.51-.81-1.09-1.49-2.24-1.29a3,3,0,0,1-.95-.24c.58-.4,1-.78,1.49-1.12a1.15,1.15,0,0,0,.38-1.8c-.24-.41-.55-.78-.82-1.19,0-.07-.13-.17-.17-.17-.95.21-1.19-.92-2-1.05-.14,0-.24-.27-.37-.41-.21-.31-.48-.58-.65-.88a4.11,4.11,0,0,0-1.6-1.26,2.56,2.56,0,0,1-.74-.85,2.76,2.76,0,0,0-1.84-1.39,1.49,1.49,0,0,1-1.15-.68.63.63,0,0,0-.55-.21,1.33,1.33,0,0,1-1.56-.95c-.1-.2-.24-.44-.38-.68-.23.21-.4.38-.64.58a4.68,4.68,0,0,1-.31-.37c-.51-1-1.05-2-1.49-3-.82-1.91-1.6-3.84-2.42-5.75-.13-.27-.44-.44-.67-.68s-.75-.54-1.09-.88a.76.76,0,0,0-.78-.34,1.22,1.22,0,0,1-.68-.24,7.48,7.48,0,0,1-1.77-4.21c-.24-1.29-.24-2.65-.37-3.95a1.14,1.14,0,0,0-.28-.67,2.9,2.9,0,0,1-1-1.94,1.94,1.94,0,0,0-.89-1.43c-.95-.61-1.86-1.26-2.78-1.87a1.65,1.65,0,0,1-.85-1.15,1.59,1.59,0,0,0-.14-.55c-.27-1.15-.27-1.15.41-2.1-2.07-1.13-2.89-3.27-4.11-5.07a37.41,37.41,0,0,1-3.23-6.05,7.35,7.35,0,0,0-1.6-2.34,16,16,0,0,1-2.21-3.37,6.64,6.64,0,0,1-.54-1.29c-.07-.1,0-.3,0-.44.17,0,.38,0,.51.1a1.45,1.45,0,0,1,.45.44,31.63,31.63,0,0,0,4.31,5.75c.34.4.58.4.71-.14.24-.92.38-1.87.58-2.79a4,4,0,0,1,.38-1.15,1.64,1.64,0,0,0,.06-1.63c-.85-1.94-1.73-3.84-2.65-5.81a5.29,5.29,0,0,1-2.82.85,4.21,4.21,0,0,1-3.19-1.06,1.57,1.57,0,0,0-1.4-.41c-.64.11-1.29.21-1.93.34a1.08,1.08,0,0,0-.17,0c-1.23-.48-2,.51-3,.81-.68.24-1.32.55-2,.85a2.31,2.31,0,0,1-1.73-.06c-1-.34-2.07-.58-3.13-.85s-2-.51-2.95-.85a4.64,4.64,0,0,0-2.48,0,1.86,1.86,0,0,1-2.15-.92,1.38,1.38,0,0,0-1.42-.78,11.83,11.83,0,0,1-4.29-.72.78.78,0,0,1-.64-.81.82.82,0,0,0-.37-.58,6.72,6.72,0,0,0-6.56.07,6,6,0,0,0-1.47,1,2.52,2.52,0,0,0-.5,2.45,13.63,13.63,0,0,1,.27,1.53,2.93,2.93,0,0,1-3.27,2.61,2.62,2.62,0,0,1-1.8-1.15,1.34,1.34,0,0,0-1-.51,3.6,3.6,0,0,1-1.56-.58,4.41,4.41,0,0,0-2.89-.58,3.14,3.14,0,0,1-3.5-2.31,2.62,2.62,0,0,0-1.49-1.63,13.28,13.28,0,0,0-4.49-1.33,12,12,0,0,0-1.9-.06,5.08,5.08,0,0,1-2.72-1c-.17-.11-.38-.28-.55-.24-.81.07-1.22-.44-1.63-1-.2-.24-.54-.51-.78-.47a2.35,2.35,0,0,1-2-1.16c.24-.2.48-.41.68-.61s.61-.71.95-1c.58-.51,1.19-1,1.74-1.56a1.67,1.67,0,0,0,.17-2.62c-.17-.17-.31-.34-.48-.54-.54-.58-.51-.92.07-1.5s1.12-.82,1.26-1.56a2.86,2.86,0,0,1,0-.44c-.68.23-1.29.47-2,.67-.1-.71-.2-1.42-1-1.73h-1.06c-.81.38-1.63.68-2.41,1.09a3.25,3.25,0,0,1-2.11.1,8.09,8.09,0,0,0-1.46-.24.82.82,0,0,0-.57.21.8.8,0,0,1-1,.23,2.66,2.66,0,0,0-2.82.14,3,3,0,0,1-.44.17,1.47,1.47,0,0,1-1.94-.17.82.82,0,0,0-.47-.17l-2.08.1a14.6,14.6,0,0,1,.92,1.53c10.19,18.93,21.07,37.42,35.41,53.6,6.66,7.47,14,14.2,23,18.75,11.76,6,23.31,5.71,34.49-1.49.27-.2.58-.34,1.26-.75-1.09,30-6.8,58.49-19.71,85.34a174.2,174.2,0,0,1-44.66,57.63,18.06,18.06,0,0,0,1.57,1.7,11.53,11.53,0,0,1,2.92,4c.68,1.6,1.46,3.2,2.24,4.76a3.29,3.29,0,0,0,.51.78,4.83,4.83,0,0,1,1.46,4c-.06.74-.17.81-.95.85a3.23,3.23,0,0,0-.44,0,6.61,6.61,0,0,0,.31.95,10,10,0,0,0,.91,1.53c.65.89,1.4,1.73,2.11,2.62,0,.07.17.1.24.1.78-.07,1.15.44,1.39,1.05h1.29a7.27,7.27,0,0,1,4.12-1,3,3,0,0,0,1.86-.44,4.39,4.39,0,0,1,2.49-.47,7.1,7.1,0,0,0,1.39-.21,4.52,4.52,0,0,1,1.32,0c.79.1,1.57.37,2.35.51a.83.83,0,0,0,.78-.24,1,1,0,0,1,.88-.3,1.58,1.58,0,0,0,1.53-.58,1,1,0,0,1,.78-.24,7.52,7.52,0,0,0,3.78-.68,3.53,3.53,0,0,0,.85-.48,51.13,51.13,0,0,0,6.05-5.71,1.91,1.91,0,0,1,.57-.47,8.14,8.14,0,0,0,3.16-3c.92-1.36,1.81-2.71,2.76-4.07a1.49,1.49,0,0,1,.74-.62,4.59,4.59,0,0,0,2.62-2.78c.68-2,1.33-3.94,2-5.92.1-.3.14-.57-.34-.81s-.54-1,0-1.5a4.16,4.16,0,0,1,1.74-1.12c1.56-.47,3.09-.95,4.62-1.53a2.57,2.57,0,0,0,1.59-1.32c.24-.58.55-1.16.89-1.87a5.34,5.34,0,0,1-.58.3c.1-.27.17-.47.24-.68a15.29,15.29,0,0,0,1-4.62,1.79,1.79,0,0,0-.3-1,4.83,4.83,0,0,1-.58-1.74,5.7,5.7,0,0,0-1.29-3.22,1.61,1.61,0,0,1,.81-2.55,2.65,2.65,0,0,0,2-1.5,3.8,3.8,0,0,1,1.7-1.6c.14-.06.27-.2.38-.17.71.17.88-.37,1.19-.85a11.24,11.24,0,0,1,4.72-4.18,12.67,12.67,0,0,1,2.62-.54,1.73,1.73,0,0,0,.68-.27c.74-.44,1.49-.85,2.21-1.36a7.46,7.46,0,0,0,1-1.09c.34-.37.65-.78,1-1.12a6.31,6.31,0,0,0,1.84-3.09.57.57,0,0,1,.13-.27,2.54,2.54,0,0,0,.31-2.55,9.31,9.31,0,0,1,0-4.83,4.49,4.49,0,0,0,0-1c0-.89,0-1.81,0-2.69a1.68,1.68,0,0,1,.24-.68c.27-.61.58-1.19.85-1.8A1.42,1.42,0,0,0,332,250a9.35,9.35,0,0,1-.92-.71,1.61,1.61,0,0,1-.72-1.4,7,7,0,0,0-.68-2.17c-.3-.75-.68-1.46-1-2.18a1,1,0,0,1,0-.54,4.7,4.7,0,0,0,.34-2.62,2.65,2.65,0,0,1,.2-1.36,1.3,1.3,0,0,0-.54-1.83,4.12,4.12,0,0,0-.65-.44,1.06,1.06,0,0,1-.54-1.4c.41-1.46.85-2.88,1.29-4.35a1.17,1.17,0,0,1,.51-.57,1.66,1.66,0,0,0,.78-1c.38-1,.89-2,1.33-3a12.37,12.37,0,0,1,1.12-2.45,11.64,11.64,0,0,1,1.94-1.9.51.51,0,0,1,.34-.17,2.41,2.41,0,0,0,1.39-1c1.15-1.49,2.38-3,3.53-4.45.21-.27.14-.74.21-1.19.85.28,1.25-.4,1.8-.91a30.79,30.79,0,0,1,3.23-2.79,15.21,15.21,0,0,0,2.72-2.48,1.66,1.66,0,0,1,.57-.44,6.78,6.78,0,0,0,3.57-2.45,18.42,18.42,0,0,1,1.94-2c1.19-1.15,2.24-2.48,3.33-3.73a2.43,2.43,0,0,0,.41-.82,5.09,5.09,0,0,1,2.24-3,2.74,2.74,0,0,0,1.26-2.21,4.73,4.73,0,0,1,.71-2.11,7.25,7.25,0,0,0,1.29-3.43,2.08,2.08,0,0,1,.41-.95,6.73,6.73,0,0,0,1.29-2.24,9.9,9.9,0,0,1,1.06-1.74,2.5,2.5,0,0,0,.27-.81c0-.51,0-1,0-1.53a1.61,1.61,0,0,1,1.15-1.73v-.24C367.16,179.51,367.06,179.41,367.06,179.27ZM287.84,163.4a19.8,19.8,0,1,1,19.74-19.84A19.78,19.78,0,0,1,287.84,163.4Z"/><path d="M268,143.76a19.81,19.81,0,1,1,19.88,19.64A19.73,19.73,0,0,1,268,143.76Z"/><path d="M314.62,164.49c-1.09,30-6.8,58.49-19.71,85.34a174.2,174.2,0,0,1-44.66,57.63,7.52,7.52,0,0,1-1.25-2.38,48.54,48.54,0,0,1-1.06-5.37c2.14-3.73,4.22-7.54,6.15-11.38,10.91-21.75,15.81-44.76,12.75-69.12-1.94-15.74-6.87-30.66-13.73-44.86-7-14.51-14.61-28.79-21.75-43.23-5.81-11.83-10.74-24-12.17-37.25,0-.24,0-.51,0-1a.91.91,0,0,1,.34,0,14.6,14.6,0,0,1,.92,1.53c10.19,18.93,21.07,37.42,35.41,53.6,6.66,7.47,14,14.2,23,18.75,11.76,6,23.31,5.71,34.49-1.49C313.63,165,313.94,164.9,314.62,164.49Z"/><path class="cls-3" d="M362.19,268.64c-1.3,0-.95-1.15-1.47-1.81a2.49,2.49,0,0,0-.27.63,6.72,6.72,0,0,0,0,1.79,3.75,3.75,0,0,1-.95,3.38,3.16,3.16,0,0,0-.72,1.48,38.19,38.19,0,0,1-2.69,7.24c-1.93,4.4-3.83,8.81-5.81,13.2a26.11,26.11,0,0,1-2.07,3.63,1.72,1.72,0,0,1-1.62.84,1.21,1.21,0,0,0-.57.06c-1,.4-2,.8-3,1.26a1.7,1.7,0,0,1-1.95-.16c-.41-.32-.84-.62-1.28-.9a4.66,4.66,0,0,1-2-3.75,2,2,0,0,1,.23-.95,3.11,3.11,0,0,0,.16-1.81c-.14-.68.07-1.42-.69-1.9-.17-.11-.21-.54-.2-.82a4.67,4.67,0,0,1,.8-2.8c.08-.1.14-.25.25-.3A4.48,4.48,0,0,0,340,285l2-3.26c0-.08.15-.2.13-.25-.43-.81.18-1.65-.08-2.47a9.05,9.05,0,0,1-.39-1.86c-.07-.73,0-1.47-.05-2.21,0-.17.05-.39,0-.51-.59-.77-.13-1.37.35-1.88a5.08,5.08,0,0,0,1.36-2.71.58.58,0,0,1,.41-.35,3.57,3.57,0,0,0,1.82-.69.64.64,0,0,1,.63,0c.47.37.83.27,1.09-.19s.92-.61,1.46-.64c.18,0,.42.23.55.41a.8.8,0,0,0,1,.34,9,9,0,0,0,.06-1.17,1,1,0,0,1,.8-1.23,5.74,5.74,0,0,0,.36.55c.11.11.28.25.41.24a.49.49,0,0,0,.32-.32,4.44,4.44,0,0,1,.81-2c.05-.05.09-.12.18-.23l.21.72,1.79-1.16c-1.05-1.48-.63-1.29,0-1.55v-1.75a2.6,2.6,0,0,1,.51.08.9.9,0,0,0,1.35-.64c.1-.4.25-.61.69-.59a.4.4,0,0,0,.33-.23,3.45,3.45,0,0,0,.33-1.4,1.81,1.81,0,0,1,1.21-2c.24.29.5.61.77.92a7.19,7.19,0,0,1,1.69,4.76c0,.93.19,1.85.28,2.77a28,28,0,0,1,.24,2.88A3.83,3.83,0,0,1,362.19,268.64Z"/><path class="cls-4" d="M314.62,164.49c-1.09,30-6.8,58.49-19.71,85.34a174.2,174.2,0,0,1-44.66,57.63c-4,3.47-12.54,9.89-12.54,9.89s6.83-11.72,10.23-17.64c2.14-3.73,4.22-7.54,6.15-11.38,10.91-21.75,15.81-44.76,12.75-69.12-1.94-15.74-6.87-30.66-13.73-44.86-7-14.51-14.61-28.79-21.75-43.23-5.81-11.83-10.74-24-12.17-37.25,0-.24,0-.51,0-1v-.58c.14.2.24.37.34.54a14.6,14.6,0,0,1,.92,1.53c10.19,18.93,21.07,37.42,35.41,53.6,6.66,7.47,14,14.2,23,18.75,11.76,6,23.31,5.71,34.49-1.49C313.63,165,313.94,164.9,314.62,164.49Z"/><path class="cls-5" d="M275.07,251.8c-3.15,30.7-37.36,65.55-37.36,65.55s6.83-11.72,10.23-17.64c2.14-3.73,4.22-7.54,6.15-11.38,10.91-21.75,15.81-44.76,12.75-69.12-1.94-15.74-6.87-30.66-13.73-44.86-7-14.51-14.61-28.79-21.75-43.23-5.81-11.83-10.74-24-12.17-37.25,0-.24,0-.51,0-1v-.58c.14.2.24.37.34.54a14.6,14.6,0,0,1,.92,1.53C229.33,139.27,282.39,180.44,275.07,251.8Z"/><path class="cls-4" d="M307.58,143.56a19.81,19.81,0,1,1-20.05-19.75A19.85,19.85,0,0,1,307.58,143.56Z"/><path class="cls-6" d="M431.44,268V171.25a10.2,10.2,0,0,1,10.93-10.94h30.1q17.73,0,29.2,10.57t11.47,27.59q0,17.92-11.38,28.67t-29.29,10.75H453.84V268a10.42,10.42,0,0,1-3.14,8,11.39,11.39,0,0,1-8.15,3,11.11,11.11,0,0,1-8.07-3A10.58,10.58,0,0,1,431.44,268Zm39.06-88.15H453.84v38.52H470.5q9.31,0,14.6-5.19T490.39,199q0-8.77-5.38-14T470.5,179.84Z"/><path class="cls-7" d="M613.53,263.79a18.25,18.25,0,0,1,.53,3.91,11.62,11.62,0,0,1-2.83,8,9.42,9.42,0,0,1-7.42,3.21q-8.31,0-10.95-8.6l-4.6-15.77H549.45l-4.69,16.1a10.88,10.88,0,0,1-3.74,5.94,10.75,10.75,0,0,1-7,2.33,8.72,8.72,0,0,1-7.14-3.05,11.47,11.47,0,0,1-2.49-7.53,15.4,15.4,0,0,1,.53-3.4l29.77-94.11q3.63-11.45,14.65-11.42a14.18,14.18,0,0,1,9.16,3.08,17.72,17.72,0,0,1,5.61,8.49Zm-44.7-75.89-13.91,47.84h27.86Z"/><path class="cls-8" d="M664.35,166.76l24.37,44.79,24-44.79q4.31-7.33,12-7.35a10.83,10.83,0,0,1,7.88,3,10.62,10.62,0,0,1,3,8v98.18a9.57,9.57,0,0,1-3.23,7.53,11.4,11.4,0,0,1-7.87,2.86,10.45,10.45,0,0,1-7.62-2.86,10,10,0,0,1-3-7.53V204.75l-16.12,29.92q-3.4,5.73-9.5,5.73a10.73,10.73,0,0,1-9.67-5.56l-16.48-30.63v64.85a9.29,9.29,0,0,1-3,7.08,11.33,11.33,0,0,1-14.87,0,9.26,9.26,0,0,1-3-7.08V170.35a10.76,10.76,0,0,1,3-8,10.54,10.54,0,0,1,7.79-3Q660,159.41,664.35,166.76Z"/><path class="cls-9" d="M850.5,197.75v42.83q0,17.91-11.38,28.58t-30,10.65q-18.65,0-30.09-10.65t-11.47-28.58V197.75q0-18.25,10.83-28.75t30.73-10.48q18.63,0,30,10.67T850.5,197.75Zm-60.56.37v42.1q0,9,5.1,14.24t14.07,5.29q9,0,14-5.29t5-14.24v-42.1q0-9-5-14.25c-3.35-3.51-8-5.29-14-5.29s-10.65,1.78-14.07,5.29S789.94,192.14,789.94,198.12Z"/><path class="cls-10" d="M883.28,235.38q9.69,0,11.28,10.57,2.16,13.8,14.7,13.8,7,0,10.84-4.3T924,243.8V170.35a10.62,10.62,0,0,1,3-8,11.11,11.11,0,0,1,8.07-3,11.39,11.39,0,0,1,8.15,3,10.46,10.46,0,0,1,3.14,8v73.81q0,16.31-10.22,26t-26.87,9.67q-15.94,0-25.89-8.86t-10.84-24.1a10.21,10.21,0,0,1,2.78-8.06A10.37,10.37,0,0,1,883.28,235.38Z"/><path class="cls-11" d="M1060.17,263.79a17.73,17.73,0,0,1,.54,3.91,11.67,11.67,0,0,1-2.83,8,9.42,9.42,0,0,1-7.42,3.21q-8.31,0-11-8.6l-4.59-15.77H996.09l-4.68,16.1a11,11,0,0,1-3.75,5.94,10.7,10.7,0,0,1-6.95,2.33,8.7,8.7,0,0,1-7.14-3.05,11.47,11.47,0,0,1-2.49-7.53,14.82,14.82,0,0,1,.53-3.4l29.77-94.11q3.61-11.45,14.65-11.42a14.18,14.18,0,0,1,9.16,3.08,17.64,17.64,0,0,1,5.6,8.49Zm-44.69-75.89-13.92,47.84h27.86Z"/></svg>